# xmcd
#
# Track frame offsets:
#	150
#	6446
#	21112
#	57382
#	126121
#	185131
#	268284
#
# Disc length: 3931 seconds
#
# Revision: 0
# Processed by: cddbd v1.5.2PL0 Copyright (c) Steve Scherf et al.
# Submitted via: audiograbber 1.83.01
#
DISCID=660f5907
DTITLE=Grateful Dead - 94-10-10 USAir Arena, Landover MD
DYEAR=1900
DGENRE=
TTITLE0=Tuning
TTITLE1=Help On The Way
TTITLE2=Slipknot!
TTITLE3=Franklin's Tower
TTITLE4=Estimated Prophet
TTITLE5=Terrapin Station
TTITLE6=Drums
EXTD=
EXTT0=
EXTT1=
EXTT2=
EXTT3=
EXTT4=
EXTT5=
EXTT6=
PLAYORDER=
